{
  "accessors": [
    {
      "bufferView": 2,
      "componentType": 5126,
      "count": 487,
      "max": [
        2.0168681144714355,
        3.500302314758301,
        1.2613836526870728
      ],
      "min": [
        -1.5225646495819092,
        0.0,
        -3.0440893173217773
      ],
      "type": "VEC3"
    },
    {
      "bufferView": 2,
      "byteOffset": 5844,
      "componentType": 5126,
      "count": 487,
      "max": [
        1.0,
        1.0,
        1.0
      ],
      "min": [
        -1.0,
        -1.0,
        -1.0
      ],
      "type": "VEC3"
    },
    {
      "bufferView": 1,
      "componentType": 5126,
      "count": 487,
      "max": [
        0.9999998807907104,
        1.0
      ],
      "min": [
        -1.679038064139604e-08,
        0.014088690280914307
      ],
      "type": "VEC2"
    },
    {
      "bufferView": 0,
      "componentType": 5125,
      "count": 1068,
      "type": "SCALAR"
    },
    {
      "bufferView": 2,
      "byteOffset": 11688,
      "componentType": 5126,
      "count": 473,
      "max": [
        1.0319136381149292,
        2.519864559173584,
        1.2265478372573853
      ],
      "min": [
        -1.4877288341522217,
        0.0,
        -1.7498043775558472
      ],
      "type": "VEC3"
    },
    {
      "bufferView": 2,
      "byteOffset": 17364,
      "componentType": 5126,
      "count": 473,
      "max": [
        1.0,
        1.0,
        1.0
      ],
      "min": [
        -1.0,
        -1.0,
        -1.0
      ],
      "type": "VEC3"
    },
    {
      "bufferView": 1,
      "byteOffset": 3896,
      "componentType": 5126,
      "count": 473,
      "max": [
        0.9624124765396118,
        0.902219295501709
      ],
      "min": [
        0.01089833676815033,
        0.13681238889694214
      ],
      "type": "VEC2"
    },
    {
      "bufferView": 0,
      "byteOffset": 4272,
      "componentType": 5125,
      "count": 1056,
      "type": "SCALAR"
    },
    {
      "bufferView": 2,
      "byteOffset": 23040,
      "componentType": 5126,
      "count": 76,
      "max": [
        1.0319136381149292,
        2.5041637420654297,
        1.1965187788009644
      ],
      "min": [
        -1.4576997756958008,
        0.006324749439954758,
        -1.7341034412384033
      ],
      "type": "VEC3"
    },
    {
      "bufferView": 2,
      "byteOffset": 23952,
      "componentType": 5126,
      "count": 76,
      "max": [
        0.0,
        0.0,
        1.0
      ],
      "min": [
        -1.0,
        0.0,
        0.0
      ],
      "type": "VEC3"
    },
    {
      "bufferView": 1,
      "byteOffset": 7680,
      "componentType": 5126,
      "count": 76,
      "max": [
        0.9759649038314819,
        1.0
      ],
      "min": [
        -5.6947438764609615e-08,
        0.0
      ],
      "type": "VEC2"
    },
    {
      "bufferView": 1,
      "byteOffset": 8288,
      "componentType": 5126,
      "count": 76,
      "max": [
        0.9759649038314819,
        1.0
      ],
      "min": [
        -5.6947438764609615e-08,
        0.0
      ],
      "type": "VEC2"
    },
    {
      "bufferView": 0,
      "byteOffset": 8496,
      "componentType": 5125,
      "count": 114,
      "type": "SCALAR"
    },
    {
      "bufferView": 2,
      "byteOffset": 24864,
      "componentType": 5126,
      "count": 7344,
      "max": [
        0.521191418170929,
        0.6973345279693604,
        0.77455073595047
      ],
      "min": [
        -0.5981665253639221,
        -0.08770442754030228,
        -2.384185791015625e-07
      ],
      "type": "VEC3"
    },
    {
      "bufferView": 2,
      "byteOffset": 112992,
      "componentType": 5126,
      "count": 7344,
      "max": [
        1.0,
        1.0,
        1.0
      ],
      "min": [
        -1.0,
        -1.0,
        -1.0
      ],
      "type": "VEC3"
    },
    {
      "bufferView": 3,
      "componentType": 5126,
      "count": 7344,
      "max": [
        1.0,
        1.0,
        1.0,
        1.0
      ],
      "min": [
        -1.0,
        -1.0,
        -1.0,
        -1.0
      ],
      "type": "VEC4"
    },
    {
      "bufferView": 1,
      "byteOffset": 8896,
      "componentType": 5126,
      "count": 7344,
      "max": [
        0.9919573068618774,
        0.998046875
      ],
      "min": [
        0.001953125,
        0.001953125
      ],
      "type": "VEC2"
    },
    {
      "bufferView": 1,
      "byteOffset": 67648,
      "componentType": 5126,
      "count": 7344,
      "max": [
        0.9919573068618774,
        0.998046875
      ],
      "min": [
        0.001953125,
        0.001953125
      ],
      "type": "VEC2"
    },
    {
      "bufferView": 1,
      "byteOffset": 126400,
      "componentType": 5126,
      "count": 7344,
      "max": [
        0.9919573068618774,
        0.998046875
      ],
      "min": [
        0.001953125,
        0.001953125
      ],
      "type": "VEC2"
    },
    {
      "bufferView": 1,
      "byteOffset": 185152,
      "componentType": 5126,
      "count": 7344,
      "max": [
        0.9919573068618774,
        0.998046875
      ],
      "min": [
        0.001953125,
        0.001953125
      ],
      "type": "VEC2"
    },
    {
      "bufferView": 0,
      "byteOffset": 8952,
      "componentType": 5125,
      "count": 17328,
      "type": "SCALAR"
    },
    {
      "bufferView": 2,
      "byteOffset": 201120,
      "componentType": 5126,
      "count": 7344,
      "max": [
        0.521191418170929,
        0.6973345279693604,
        0.77455073595047
      ],
      "min": [
        -0.5981665253639221,
        -0.08770442754030228,
        -2.384185791015625e-07
      ],
      "type": "VEC3"
    },
    {
      "bufferView": 2,
      "byteOffset": 289248,
      "componentType": 5126,
      "count": 7344,
      "max": [
        1.0,
        1.0,
        1.0
      ],
      "min": [
        -1.0,
        -1.0,
        -1.0
      ],
      "type": "VEC3"
    },
    {
      "bufferView": 3,
      "byteOffset": 117504,
      "componentType": 5126,
      "count": 7344,
      "max": [
        1.0,
        1.0,
        1.0,
        1.0
      ],
      "min": [
        -1.0,
        -1.0,
        -1.0,
        -1.0
      ],
      "type": "VEC4"
    },
    {
      "bufferView": 1,
      "byteOffset": 243904,
      "componentType": 5126,
      "count": 7344,
      "max": [
        0.9919573068618774,
        0.998046875
      ],
      "min": [
        0.001953125,
        0.001953125
      ],
      "type": "VEC2"
    },
    {
      "bufferView": 1,
      "byteOffset": 302656,
      "componentType": 5126,
      "count": 7344,
      "max": [
        0.9919573068618774,
        0.998046875
      ],
      "min": [
        0.001953125,
        0.001953125
      ],
      "type": "VEC2"
    },
    {
      "bufferView": 1,
      "byteOffset": 361408,
      "componentType": 5126,
      "count": 7344,
      "max": [
        0.9919573068618774,
        0.998046875
      ],
      "min": [
        0.001953125,
        0.001953125
      ],
      "type": "VEC2"
    },
    {
      "bufferView": 1,
      "byteOffset": 420160,
      "componentType": 5126,
      "count": 7344,
      "max": [
        0.9919573068618774,
        0.998046875
      ],
      "min": [
        0.001953125,
        0.001953125
      ],
      "type": "VEC2"
    },
    {
      "bufferView": 0,
      "byteOffset": 78264,
      "componentType": 5125,
      "count": 17328,
      "type": "SCALAR"
    },
    {
      "bufferView": 2,
      "byteOffset": 377376,
      "componentType": 5126,
      "count": 10104,
      "max": [
        0.07561048120260239,
        0.17844921350479126,
        0.0744667649269104
      ],
      "min": [
        -0.07523971050977707,
        -0.00022155790065880865,
        -0.07638343423604965
      ],
      "type": "VEC3"
    },
    {
      "bufferView": 2,
      "byteOffset": 498624,
      "componentType": 5126,
      "count": 10104,
      "max": [
        1.0,
        1.0,
        1.0
      ],
      "min": [
        -1.0,
        -1.0,
        -1.0
      ],
      "type": "VEC3"
    },
    {
      "bufferView": 3,
      "byteOffset": 235008,
      "componentType": 5126,
      "count": 10104,
      "max": [
        1.0,
        1.0,
        1.0,
        1.0
      ],
      "min": [
        -1.0,
        -1.0,
        -1.0,
        -1.0
      ],
      "type": "VEC4"
    },
    {
      "bufferView": 1,
      "byteOffset": 478912,
      "componentType": 5126,
      "count": 10104,
      "max": [
        0.9990232586860657,
        0.9990234375
      ],
      "min": [
        0.0009765625,
        0.0009765625
      ],
      "type": "VEC2"
    },
    {
      "bufferView": 1,
      "byteOffset": 559744,
      "componentType": 5126,
      "count": 10104,
      "max": [
        0.9990232586860657,
        0.9990234375
      ],
      "min": [
        0.0009765625,
        0.0009765625
      ],
      "type": "VEC2"
    },
    {
      "bufferView": 1,
      "byteOffset": 640576,
      "componentType": 5126,
      "count": 10104,
      "max": [
        0.9990232586860657,
        0.9990234375
      ],
      "min": [
        0.0009765625,
        0.0009765625
      ],
      "type": "VEC2"
    },
    {
      "bufferView": 1,
      "byteOffset": 721408,
      "componentType": 5126,
      "count": 10104,
      "max": [
        0.9990232586860657,
        0.9990234375
      ],
      "min": [
        0.0009765625,
        0.0009765625
      ],
      "type": "VEC2"
    },
    {
      "bufferView": 0,
      "byteOffset": 147576,
      "componentType": 5125,
      "count": 47856,
      "type": "SCALAR"
    }
  ],
  "asset": {
    "extras": {
      "author": "abhayexe (https://sketchfab.com/abhayexe)",
      "license": "SKETCHFAB Standard (https://sketchfab.com/licenses)",
      "source": "https://sketchfab.com/3d-models/brutalist-building-3b0520845a334365bbad443d560bb042",
      "title": "Brutalist Building"
    },
    "generator": "Sketchfab-16.85.0",
    "version": "2.0"
  },
  "bufferViews": [
    {
      "buffer": 0,
      "byteLength": 339000,
      "name": "floatBufferViews",
      "target": 34963
    },
    {
      "buffer": 0,
      "byteLength": 802240,
      "byteOffset": 339000,
      "byteStride": 8,
      "name": "floatBufferViews",
      "target": 34962
    },
    {
      "buffer": 0,
      "byteLength": 619872,
      "byteOffset": 1141240,
      "byteStride": 12,
      "name": "floatBufferViews",
      "target": 34962
    },
    {
      "buffer": 0,
      "byteLength": 396672,
      "byteOffset": 1761112,
      "byteStride": 16,
      "name": "floatBufferViews",
      "target": 34962
    }
  ],
  "buffers": [
    {
      "byteLength": 2157784,
      "uri": "scene.bin"
    }
  ],
  "extensionsUsed": [
    "KHR_materials_transmission"
  ],
  "images": [
    {
      "uri": "textures/smartconc_baseColor.png"
    },
    {
      "uri": "textures/smartglass_metallicRoughness.png"
    },
    {
      "uri": "textures/Wall-mounted_air_conditioner_baseColor.jpeg"
    },
    {
      "uri": "textures/Wall-mounted_air_conditioner_metallicRoughness.png"
    },
    {
      "uri": "textures/Wall-mounted_air_conditioner_normal.jpeg"
    },
    {
      "uri": "textures/Material.016_baseColor.jpeg"
    },
    {
      "uri": "textures/Material.016_metallicRoughness.png"
    },
    {
      "uri": "textures/Material.016_normal.jpeg"
    }
  ],
  "materials": [
    {
      "doubleSided": true,
      "name": "smartconc",
      "pbrMetallicRoughness": {
        "baseColorTexture": {
          "index": 0
        },
        "metallicFactor": 0.0,
        "roughnessFactor": 0.5
      }
    },
    {
      "doubleSided": true,
      "name": "Material.003",
      "pbrMetallicRoughness": {
        "baseColorTexture": {
          "index": 0
        },
        "metallicFactor": 0.0,
        "roughnessFactor": 0.5
      }
    },
    {
      "alphaMode": "BLEND",
      "doubleSided": true,
      "extensions": {
        "KHR_materials_transmission": {
          "transmissionFactor": 1.0
        }
      },
      "name": "smartglass",
      "pbrMetallicRoughness": {
        "baseColorFactor": [
          0.5767115481225897,
          0.5839183621964097,
          0.6277132151206553,
          0.25
        ],
        "metallicRoughnessTexture": {
          "index": 1
        }
      }
    },
    {
      "doubleSided": true,
      "name": "Wall-mounted_air_conditioner",
      "normalTexture": {
        "index": 4
      },
      "pbrMetallicRoughness": {
        "baseColorTexture": {
          "index": 2
        },
        "metallicRoughnessTexture": {
          "index": 3
        }
      }
    },
    {
      "doubleSided": true,
      "name": "Material.016",
      "normalTexture": {
        "index": 7,
        "scale": 0.3
      },
      "pbrMetallicRoughness": {
        "baseColorTexture": {
          "index": 5
        },
        "metallicRoughnessTexture": {
          "index": 6
        }
      }
    }
  ],
  "meshes": [
    {
      "name": "Object_0",
      "primitives": [
        {
          "attributes": {
            "NORMAL": 1,
            "POSITION": 0,
            "TEXCOORD_0": 2
          },
          "indices": 3,
          "material": 0,
          "mode": 4
        }
      ]
    },
    {
      "name": "Object_1",
      "primitives": [
        {
          "attributes": {
            "NORMAL": 5,
            "POSITION": 4,
            "TEXCOORD_0": 6
          },
          "indices": 7,
          "material": 1,
          "mode": 4
        }
      ]
    },
    {
      "name": "Object_2",
      "primitives": [
        {
          "attributes": {
            "NORMAL": 9,
            "POSITION": 8,
            "TEXCOORD_0": 10,
            "TEXCOORD_1": 11
          },
          "indices": 12,
          "material": 2,
          "mode": 4
        }
      ]
    },
    {
      "name": "Object_3",
      "primitives": [
        {
          "attributes": {
            "NORMAL": 14,
            "POSITION": 13,
            "TANGENT": 15,
            "TEXCOORD_0": 16,
            "TEXCOORD_1": 17,
            "TEXCOORD_2": 18,
            "TEXCOORD_3": 19
          },
          "indices": 20,
          "material": 3,
          "mode": 4
        }
      ]
    },
    {
      "name": "Object_4",
      "primitives": [
        {
          "attributes": {
            "NORMAL": 22,
            "POSITION": 21,
            "TANGENT": 23,
            "TEXCOORD_0": 24,
            "TEXCOORD_1": 25,
            "TEXCOORD_2": 26,
            "TEXCOORD_3": 27
          },
          "indices": 28,
          "material": 3,
          "mode": 4
        }
      ]
    },
    {
      "name": "Object_5",
      "primitives": [
        {
          "attributes": {
            "NORMAL": 30,
            "POSITION": 29,
            "TANGENT": 31,
            "TEXCOORD_0": 32,
            "TEXCOORD_1": 33,
            "TEXCOORD_2": 34,
            "TEXCOORD_3": 35
          },
          "indices": 36,
          "material": 4,
          "mode": 4
        }
      ]
    }
  ],
  "nodes": [
    {
      "children": [
        1
      ],
      "matrix": [
        1.0,
        0.0,
        0.0,
        0.0,
        0.0,
        2.220446049250313e-16,
        -1.0,
        0.0,
        0.0,
        1.0,
        2.220446049250313e-16,
        0.0,
        0.0,
        0.0,
        0.0,
        1.0
      ],
      "name": "Sketchfab_model"
    },
    {
      "children": [
        2
      ],
      "name": "root"
    },
    {
      "children": [
        3,
        6,
        8,
        10,
        12
      ],
      "matrix": [
        1.0,
        0.0,
        0.0,
        0.0,
        0.0,
        2.220446049250313e-16,
        1.0,
        0.0,
        0.0,
        -1.0,
        2.220446049250313e-16,
        0.0,
        0.0,
        0.0,
        0.0,
        1.0
      ],
      "name": "GLTF_SceneRootNode"
    },
    {
      "children": [
        4,
        5
      ],
      "name": "Cube_0"
    },
    {
      "mesh": 0,
      "name": "Object_4"
    },
    {
      "mesh": 1,
      "name": "Object_5"
    },
    {
      "children": [
        7
      ],
      "name": "Cube.001_1"
    },
    {
      "mesh": 2,
      "name": "Object_7"
    },
    {
      "children": [
        9
      ],
      "matrix": [
        0.19612829387187958,
        0.0,
        0.0,
        0.0,
        0.0,
        0.19612829387187958,
        0.0,
        0.0,
        0.0,
        0.0,
        0.19612829387187958,
        0.0,
        -0.7663663625717163,
        0.8712360858917236,
        1.000018835067749,
        1.0
      ],
      "name": "Wall-mounted air conditioner.001_2"
    },
    {
      "mesh": 3,
      "name": "Object_9"
    },
    {
      "children": [
        11
      ],
      "matrix": [
        0.19612829387187958,
        0.0,
        0.0,
        0.0,
        0.0,
        0.19612829387187958,
        0.0,
        0.0,
        0.0,
        0.0,
        0.19612829387187958,
        0.0,
        1.3442585468292236,
        3.1560428142547607,
        0.1411151885986328,
        1.0
      ],
      "name": "Wall-mounted air conditioner.002_3"
    },
    {
      "mesh": 4,
      "name": "Object_11"
    },
    {
      "children": [
        13
      ],
      "matrix": [
        -0.9999999999999885,
        0.0,
        1.5099580252808577e-07,
        0.0,
        0.0,
        1.0,
        0.0,
        0.0,
        -1.5099580252808577e-07,
        0.0,
        -0.9999999999999885,
        0.0,
        1.253028392791748,
        3.500300407409668,
        -1.5510610342025757,
        1.0
      ],
      "name": "Rooftop vent 01.001_4"
    },
    {
      "mesh": 5,
      "name": "Object_13"
    }
  ],
  "samplers": [
    {
      "magFilter": 9729,
      "minFilter": 9987,
      "wrapS": 10497,
      "wrapT": 10497
    }
  ],
  "scene": 0,
  "scenes": [
    {
      "name": "Sketchfab_Scene",
      "nodes": [
        0
      ]
    }
  ],
  "textures": [
    {
      "sampler": 0,
      "source": 0
    },
    {
      "sampler": 0,
      "source": 1
    },
    {
      "sampler": 0,
      "source": 2
    },
    {
      "sampler": 0,
      "source": 3
    },
    {
      "sampler": 0,
      "source": 4
    },
    {
      "sampler": 0,
      "source": 5
    },
    {
      "sampler": 0,
      "source": 6
    },
    {
      "sampler": 0,
      "source": 7
    }
  ]
}
